# xmcd
#
# Track frame offsets:
#	182
#	13857
#	23532
#	39332
#	49932
#	64332
#	78307
#	92307
#	102757
#	118195
#	129820
#	142707
#
# Disc length: 2039 seconds
#
# Revision: 0
# Processed by: cddbd v1.5PL3 Copyright (c) Steve Scherf et al.
# Submitted via: audiograbber 1.82.02
#
DISCID=8907f50c
DTITLE=George Hamilton IV. Jiri Brabec and Country Beat - Vyber
DYEAR=1983
DGENRE=
TTITLE0=One More Country Song
TTITLE1=Travelin´ Light
TTITLE2=My Little Friend
TTITLE3=Break My Mind
TTITLE4=Let´s Get Together
TTITLE5=Me And Bobby McGee
TTITLE6=Glad To Come Around
TTITLE7=Darling Corey
TTITLE8=Steets of London
TTITLE9=Bad News
TTITLE10=Jambalaya
TTITLE11=Country Music In My Soul
EXTD=
EXTT0=
EXTT1=
EXTT2=
EXTT3=
EXTT4=
EXTT5=
EXTT6=
EXTT7=
EXTT8=
EXTT9=
EXTT10=
EXTT11=
PLAYORDER=
